<svg xmlns="http://www.w3.org/2000/svg" viewBox="0 0 512 512" width="512" height="512">
  <!-- Background -->
  <rect width="512" height="512" rx="96" fill="#f59e0b"/>
  
  <!-- Anvil simplified -->
  <path d="M120 340 L392 340 L392 380 L320 380 L320 420 L192 420 L192 380 L120 380 Z" fill="#1c1917"/>
  <path d="M100 300 L412 300 L392 340 L120 340 Z" fill="#292524"/>
  <path d="M100 300 L100 280 L60 290 L100 300 Z" fill="#292524"/>
  
  <!-- Hammer -->
  <rect x="260" y="120" width="16" height="140" rx="4" fill="#78716c" transform="rotate(-30, 268, 190)"/>
  <rect x="230" y="90" width="76" height="40" rx="6" fill="#44403c" transform="rotate(-30, 268, 110)"/>
  
  <!-- Sparks -->
  <circle cx="180" cy="200" r="6" fill="#fef3c7" opacity="0.9"/>
  <circle cx="160" cy="170" r="4" fill="#fbbf24" opacity="0.8"/>
  <circle cx="200" cy="160" r="5" fill="#fde68a" opacity="0.7"/>
  <circle cx="140" cy="210" r="3" fill="#fef9c3" opacity="0.6"/>
  
  <!-- Prompt symbol > _ -->
  <text x="200" y="328" font-family="monospace" font-size="32" font-weight="bold" fill="#f59e0b" opacity="0.9">&gt;_</text>
</svg>
